<svg xmlns="http://www.w3.org/2000/svg" viewBox="0 0 800 250" width="100%" height="100%">
    <style>
        .bg { fill: #161b22; stroke: #4d3472; stroke-width: 1px; rx: 8px; }
        .title { font-family: -apple-system, sans-serif; font-size: 14px; fill: #ff7eb3; font-weight: bold; text-anchor: middle; }
        .grid { stroke: #30363d; stroke-width: 1; }
        .axis { font-family: -apple-system, sans-serif; font-size: 10px; fill: #8b949e; }
        .line { fill: none; stroke: #b266ff; stroke-width: 2; }
        .dot { fill: #ff7eb3; }
        @keyframes draw { from { stroke-dasharray: 0 2000; } to { stroke-dasharray: 2000 2000; } }
        .animate-draw { animation: draw 2s ease-out forwards; }
    </style>
    
    <rect width="800" height="250" class="bg" />
    <text x="400" y="30" class="title">Contribution Graph 💖</text>
    
    <!-- Grid -->
    <g transform="translate(50, 50)">
        <!-- Horizontal lines -->
        <line x1="0" y1="0" x2="700" y2="0" class="grid" />
        <line x1="0" y1="30" x2="700" y2="30" class="grid" />
        <line x1="0" y1="60" x2="700" y2="60" class="grid" />
        <line x1="0" y1="90" x2="700" y2="90" class="grid" />
        <line x1="0" y1="120" x2="700" y2="120" class="grid" />
        <line x1="0" y1="150" x2="700" y2="150" class="grid" />
        
        <!-- Y-Axis labels -->
        <text x="-10" y="5" class="axis" text-anchor="end">20</text>
        <text x="-10" y="35" class="axis" text-anchor="end">16</text>
        <text x="-10" y="65" class="axis" text-anchor="end">12</text>
        <text x="-10" y="95" class="axis" text-anchor="end">8</text>
        <text x="-10" y="125" class="axis" text-anchor="end">4</text>
        <text x="-10" y="155" class="axis" text-anchor="end">0</text>
        
        <text x="-35" y="75" class="axis" font-weight="bold" transform="rotate(-90 -35 75)" fill="#ff7eb3">Contributions</text>

        <!-- X-Axis Labels (Days) -->
        <g class="axis" text-anchor="middle" transform="translate(0, 165)">
            <text x="0">24</text>
            <text x="50">26</text>
            <text x="100">28</text>
            <text x="150">30</text>
            <text x="200">1</text>
            <text x="250">3</text>
            <text x="300">5</text>
            <text x="350">7</text>
            <text x="400">9</text>
            <text x="450">11</text>
            <text x="500">13</text>
            <text x="550">15</text>
            <text x="600">17</text>
            <text x="650">19</text>
            <text x="700">21</text>
        </g>
        <text x="350" y="185" class="axis" font-weight="bold">Days</text>

        <!-- Graph Line -->
        <path d="M 0 150 L 50 150 L 100 150 L 150 40 L 200 130 L 250 150 L 300 110 L 350 150 L 400 150 L 450 150 L 500 120 L 550 40 L 600 150 L 650 30 L 700 150" class="line animate-draw" />
        
        <!-- Dots -->
        <circle cx="150" cy="40" r="4" class="dot" />
        <circle cx="200" cy="130" r="4" class="dot" />
        <circle cx="300" cy="110" r="4" class="dot" />
        <circle cx="500" cy="120" r="4" class="dot" />
        <circle cx="550" cy="40" r="4" class="dot" />
        <circle cx="650" cy="30" r="4" class="dot" />
    </g>
</svg>