<svg xmlns="http://www.w3.org/2000/svg" viewBox="0 0 400 200" width="400" height="200">
    <defs>
        <style>
            @keyframes grow { 0% { width: 0; } }
            .bg { fill: #0d1117; stroke: #30363d; stroke-width: 1px; rx: 8px; }
            .title { fill: #c9d1d9; font-family: sans-serif; font-size: 16px; font-weight: bold; }
            .text { fill: #8b949e; font-family: sans-serif; font-size: 13px; }
        </style>
    </defs>
    <rect width="100%" height="100%" class="bg" />
    <text x="20" y="30" class="title">Top Languages</text>
    
    <g transform="translate(20, 60)">
        <text x="0" y="0" class="text">JavaScript</text>
        <rect x="100" y="-10" width="200" height="12" fill="#30363d" rx="6" />
        <rect x="100" y="-10" width="180" height="12" fill="#f1e05a" rx="6" style="animation: grow 1s ease-out forwards;" />
        <text x="310" y="0" class="text">45%</text>
    </g>
    <g transform="translate(20, 90)">
        <text x="0" y="0" class="text">C++</text>
        <rect x="100" y="-10" width="200" height="12" fill="#30363d" rx="6" />
        <rect x="100" y="-10" width="120" height="12" fill="#f34b7d" rx="6" style="animation: grow 1.2s ease-out forwards;" />
        <text x="310" y="0" class="text">30%</text>
    </g>
    <g transform="translate(20, 120)">
        <text x="0" y="0" class="text">Python</text>
        <rect x="100" y="-10" width="200" height="12" fill="#30363d" rx="6" />
        <rect x="100" y="-10" width="60" height="12" fill="#3572A5" rx="6" style="animation: grow 1.4s ease-out forwards;" />
        <text x="310" y="0" class="text">15%</text>
    </g>
    <g transform="translate(20, 150)">
        <text x="0" y="0" class="text">HTML/CSS</text>
        <rect x="100" y="-10" width="200" height="12" fill="#30363d" rx="6" />
        <rect x="100" y="-10" width="40" height="12" fill="#e34c26" rx="6" style="animation: grow 1.6s ease-out forwards;" />
        <text x="310" y="0" class="text">10%</text>
    </g>
</svg>